<svg xmlns="http://www.w3.org/2000/svg" viewBox="0 0 512 512" width="512" height="512"><rect x="0" y="0" width="512" height="512" rx="81.92" fill="#166534"/><g transform="translate(256 256) scale(1) translate(-256 -256)"><g transform="translate(256 470) rotate(-24) translate(0 -150)"><rect x="-109" y="-149.79999999999998" width="218" height="299.59999999999997" rx="27.4" fill="#166534"/><svg x="-102" y="-142.79999999999998" width="204" height="285.59999999999997" viewBox="0 0 120 168"><rect x="1" y="1" width="118" height="166" rx="12" ry="12" fill="#f8fafc" stroke="#cbd5e1" stroke-width="2"/><text x="16" y="34" font-size="26" font-weight="700" font-family="system-ui, sans-serif" fill="#0f172a">A</text><text x="60" y="84" text-anchor="middle" dominant-baseline="central" font-size="60" fill="#0f172a">♣</text><text x="16" y="34" font-size="26" font-weight="700" font-family="system-ui, sans-serif" fill="#0f172a" transform="rotate(180 60 84)">A</text></svg></g><g transform="translate(256 470) rotate(0) translate(0 -150)"><rect x="-109" y="-149.79999999999998" width="218" height="299.59999999999997" rx="27.4" fill="#166534"/><svg x="-102" y="-142.79999999999998" width="204" height="285.59999999999997" viewBox="0 0 120 168"><rect x="1" y="1" width="118" height="166" rx="12" ry="12" fill="#f8fafc" stroke="#cbd5e1" stroke-width="2"/><text x="16" y="34" font-size="26" font-weight="700" font-family="system-ui, sans-serif" fill="#dc2626">A</text><text x="60" y="84" text-anchor="middle" dominant-baseline="central" font-size="60" fill="#dc2626">♥</text><text x="16" y="34" font-size="26" font-weight="700" font-family="system-ui, sans-serif" fill="#dc2626" transform="rotate(180 60 84)">A</text></svg></g><g transform="translate(256 470) rotate(24) translate(0 -150)"><rect x="-109" y="-149.79999999999998" width="218" height="299.59999999999997" rx="27.4" fill="#166534"/><svg x="-102" y="-142.79999999999998" width="204" height="285.59999999999997" viewBox="0 0 120 168"><rect x="1" y="1" width="118" height="166" rx="12" ry="12" fill="#f8fafc" stroke="#cbd5e1" stroke-width="2"/><text x="16" y="34" font-size="26" font-weight="700" font-family="system-ui, sans-serif" fill="#0f172a">A</text><text x="60" y="84" text-anchor="middle" dominant-baseline="central" font-size="60" fill="#0f172a">♠</text><text x="16" y="34" font-size="26" font-weight="700" font-family="system-ui, sans-serif" fill="#0f172a" transform="rotate(180 60 84)">A</text></svg></g></g></svg>