<svg xmlns="http://www.w3.org/2000/svg" viewBox="0 0 512 512" width="512" height="512"><defs><radialGradient id="bg" gradientUnits="userSpaceOnUse" cx="256" cy="0" r="614.4"><stop offset="0" stop-color="#13233b"/><stop offset="0.6" stop-color="#0b1220"/></radialGradient><filter id="cardShadow" x="-30%" y="-30%" width="160%" height="160%"><feDropShadow dx="0" dy="8" stdDeviation="10" flood-color="#000000" flood-opacity="0.42"/></filter></defs><rect x="0" y="0" width="512" height="512" rx="81.92" fill="url(#bg)"/><g transform="translate(256 256) scale(1) translate(-256 -256)"><g transform="translate(256 470) rotate(-18) translate(0 -200)" filter="url(#cardShadow)"><svg x="-102" y="-142.79999999999998" width="204" height="285.59999999999997" viewBox="0 0 120 168"><rect x="1" y="1" width="118" height="166" rx="12" ry="12" fill="#f8fafc" stroke="#cbd5e1" stroke-width="2"/><text x="15" y="36" font-size="32" font-weight="700" font-family="system-ui, sans-serif" fill="#0f172a">9</text><text x="60" y="84" text-anchor="middle" dominant-baseline="central" font-size="68" fill="#0f172a">♣</text><text x="15" y="36" font-size="32" font-weight="700" font-family="system-ui, sans-serif" fill="#0f172a" transform="rotate(180 60 84)">9</text></svg></g><g transform="translate(256 470) rotate(0) translate(0 -200)" filter="url(#cardShadow)"><svg x="-102" y="-142.79999999999998" width="204" height="285.59999999999997" viewBox="0 0 120 168"><rect x="1" y="1" width="118" height="166" rx="12" ry="12" fill="#f8fafc" stroke="#cbd5e1" stroke-width="2"/><text x="15" y="36" font-size="32" font-weight="700" font-family="system-ui, sans-serif" fill="#b91c1c">8</text><text x="60" y="84" text-anchor="middle" dominant-baseline="central" font-size="68" fill="#b91c1c">♥</text><text x="15" y="36" font-size="32" font-weight="700" font-family="system-ui, sans-serif" fill="#b91c1c" transform="rotate(180 60 84)">8</text></svg></g><g transform="translate(256 470) rotate(18) translate(0 -200)" filter="url(#cardShadow)"><svg x="-102" y="-142.79999999999998" width="204" height="285.59999999999997" viewBox="0 0 120 168"><rect x="1" y="1" width="118" height="166" rx="12" ry="12" fill="#f8fafc" stroke="#cbd5e1" stroke-width="2"/><text x="15" y="36" font-size="32" font-weight="700" font-family="system-ui, sans-serif" fill="#0f172a">7</text><text x="60" y="84" text-anchor="middle" dominant-baseline="central" font-size="68" fill="#0f172a">♠</text><text x="15" y="36" font-size="32" font-weight="700" font-family="system-ui, sans-serif" fill="#0f172a" transform="rotate(180 60 84)">7</text></svg></g></g></svg>